<svg xmlns="http://www.w3.org/2000/svg" width="1400" height="420" fill="none" aria-labelledby="title desc" role="img" viewBox="0 0 1400 420"><title id="title">Codex2API Cyber Grid Banner</title><desc id="desc">A dark cyber grid banner for Codex2API</desc><defs><linearGradient id="bg" x1="0" x2="1400" y1="0" y2="420" gradientUnits="userSpaceOnUse"><stop offset="0" stop-color="#070B16"/><stop offset=".46" stop-color="#101827"/><stop offset="1" stop-color="#1C102A"/></linearGradient><linearGradient id="titleFill" x1="268" x2="1140" y1="146" y2="272" gradientUnits="userSpaceOnUse"><stop offset="0" stop-color="#67E8F9"/><stop offset=".5" stop-color="#A7F3D0"/><stop offset="1" stop-color="#F0ABFC"/></linearGradient><linearGradient id="stroke" x1="180" x2="1220" y1="310" y2="310" gradientUnits="userSpaceOnUse"><stop offset="0" stop-color="#22D3EE" stop-opacity="0"/><stop offset=".25" stop-color="#22D3EE"/><stop offset=".72" stop-color="#F0ABFC"/><stop offset="1" stop-color="#F0ABFC" stop-opacity="0"/></linearGradient><pattern id="grid" width="44" height="44" patternUnits="userSpaceOnUse"><path stroke="#334155" stroke-opacity=".25" stroke-width="1" d="M44 0H0V44"/></pattern><filter id="glow" width="140%" height="180%" x="-20%" y="-40%"><feDropShadow dx="0" dy="0" flood-color="#22D3EE" flood-opacity=".34" stdDeviation="12"/><feDropShadow dx="0" dy="0" flood-color="#D946EF" flood-opacity=".24" stdDeviation="22"/></filter></defs><rect width="1400" height="420" fill="url(#bg)" rx="28"/><rect width="1400" height="420" fill="url(#grid)" rx="28"/><path stroke="#38BDF8" stroke-opacity=".32" stroke-width="2" d="M120 320C258 240 363 250 501 308C639 366 766 366 902 280C1028 200 1174 182 1284 242"/><path stroke="#64748B" stroke-dasharray="10 12" stroke-linecap="round" stroke-width="2" d="M140 103H372M1028 103H1260M140 317H386M1016 317H1260" opacity=".55"/><g opacity=".75"><rect width="92" height="34" x="144" y="122" fill="#0F172A" stroke="#22D3EE" rx="8"/><text x="190" y="145" fill="#67E8F9" font-family="ui-monospace, SFMono-Regular, Menlo, monospace" font-size="14" font-weight="700" text-anchor="middle">/v1</text><rect width="92" height="34" x="1164" y="260" fill="#0F172A" stroke="#F0ABFC" rx="8"/><text x="1210" y="283" fill="#F0ABFC" font-family="ui-monospace, SFMono-Regular, Menlo, monospace" font-size="14" font-weight="700" text-anchor="middle">POOL</text></g><text x="700" y="240" fill="url(#titleFill)" filter="url(#glow)" font-family="Inter, ui-sans-serif, system-ui, -apple-system, BlinkMacSystemFont, Segoe UI, sans-serif" font-size="126" font-weight="900" letter-spacing="0" text-anchor="middle">Codex2API</text><text x="700" y="292" fill="#CBD5E1" font-family="ui-monospace, SFMono-Regular, Menlo, monospace" font-size="27" font-weight="800" letter-spacing="4" text-anchor="middle">OPENAI COMPATIBLE CODEX GATEWAY</text><path stroke="url(#stroke)" stroke-linecap="round" stroke-width="4" d="M180 326H1220"/></svg>